<?xml version="1.0" encoding="UTF-8" standalone="no"?>
<svg
   xmlns:dc="http://purl.org/dc/elements/1.1/"
   xmlns:cc="http://creativecommons.org/ns#"
   xmlns:rdf="http://www.w3.org/1999/02/22-rdf-syntax-ns#"
   xmlns:svg="http://www.w3.org/2000/svg"
   xmlns="http://www.w3.org/2000/svg"
   xmlns:sodipodi="http://sodipodi.sourceforge.net/DTD/sodipodi-0.dtd"
   xmlns:inkscape="http://www.inkscape.org/namespaces/inkscape"
   version="1.1"
   id="svg10"
   width="96"
   height="96"
   viewBox="0 0 96 96"
   sodipodi:docname="cos.svg"
   inkscape:version="1.0.2-2 (e86c870879, 2021-01-15)">
  <metadata
     id="metadata16">
    <rdf:RDF>
      <cc:Work
         rdf:about="">
        <dc:format>image/svg+xml</dc:format>
        <dc:type
           rdf:resource="http://purl.org/dc/dcmitype/StillImage" />
      </cc:Work>
    </rdf:RDF>
  </metadata>
  <defs
     id="defs14" />
  <sodipodi:namedview
     pagecolor="#ffffff"
     bordercolor="#666666"
     borderopacity="1"
     objecttolerance="10"
     gridtolerance="10"
     guidetolerance="10"
     inkscape:pageopacity="0"
     inkscape:pageshadow="2"
     inkscape:window-width="1920"
     inkscape:window-height="1017"
     id="namedview12"
     showgrid="false"
     inkscape:zoom="8.8541667"
     inkscape:cx="30.787852"
     inkscape:cy="63.300808"
     inkscape:window-x="-8"
     inkscape:window-y="-8"
     inkscape:window-maximized="1"
     inkscape:current-layer="layer1" />
  <g
     inkscape:groupmode="layer"
     id="layer1"
     inkscape:label="svg"
     style="opacity:1">
    <path
       style="fill:#000000;fill-opacity:1;stroke:#000000;stroke-width:1.56989px;stroke-linecap:butt;stroke-linejoin:miter;stroke-opacity:1"
       d="m 18.829503,20.321663 16.154355,15.803011 6.354091,-4.509591 -7.07882,-22.0326881 c 0,0 -11.344383,-2.855792 -15.429626,10.7392681 z"
       id="path22-5-3"
       sodipodi:nodetypes="ccccc" />
    <path
       style="fill:#000000;fill-opacity:1;stroke:#000000;stroke-width:1.56989px;stroke-linecap:butt;stroke-linejoin:miter;stroke-opacity:1"
       d="M 38.191865,8.9366881 43.95271,31.18939 51.462064,31.059449 56.817169,8.2882114 c 0,0 -8.28985,-9.08256778 -18.625304,0.6484798 z"
       id="path22-5-3-9"
       sodipodi:nodetypes="ccccc" />
    <path
       style="fill:#000000;fill-opacity:1;stroke:#000000;stroke-width:1.56989px;stroke-linecap:butt;stroke-linejoin:miter;stroke-opacity:1"
       d="m 60.537816,9.9859673 -6.669231,21.9960337 5.68173,4.329861 17.087113,-16.688307 c 0,0 -2.283324,-12.8971924 -16.099612,-9.6375877 z"
       id="path22-5-3-9-5"
       sodipodi:nodetypes="ccccc" />
    <path
       style="fill:#000000;fill-opacity:1;stroke:#000000;stroke-width:1.56989px;stroke-linecap:butt;stroke-linejoin:miter;stroke-opacity:1"
       d="m 79.54763,24.005303 -18.488238,14.082666 2.898324,6.16606 22.627261,-3.024527 c 0,0 5.67118,-11.543198 -7.037347,-17.224199 z"
       id="path22-5-3-9-5-9"
       sodipodi:nodetypes="ccccc" />
    <path
       style="fill:#000000;fill-opacity:1;stroke:#000000;stroke-width:1.56989px;stroke-linecap:butt;stroke-linejoin:miter;stroke-opacity:1"
       d="m 86.694087,44.96763 -22.252702,2.392024 -1.111205,6.800128 21.7074,9.078538 c 0,0 11.387552,-7.935237 1.656507,-18.27069 z"
       id="path22-5-3-9-5-9-6"
       sodipodi:nodetypes="ccccc" />
    <path
       style="fill:#000000;fill-opacity:1;stroke:#000000;stroke-width:1.56989px;stroke-linecap:butt;stroke-linejoin:miter;stroke-opacity:1"
       d="M 82.88557,67.325487 62.152194,56.932822 57.268902,62.082631 71.652224,81.297422 c 0,0 13.074499,-2.106016 11.233346,-13.971935 z"
       id="path22-5-3-9-5-9-5"
       sodipodi:nodetypes="ccccc" />
    <path
       style="fill:#000000;fill-opacity:1;stroke:#000000;stroke-width:1.56989px;stroke-linecap:butt;stroke-linejoin:miter;stroke-opacity:1"
       d="M 66.835922,84.212295 55.003633,63.711147 48.778449,65.103743 50.515602,88.4069 c 0,0 10.594834,5.181827 16.32032,-4.194605 z"
       id="path22-5-3-9-5-9-0"
       sodipodi:nodetypes="ccccc" />
    <path
       style="fill:#000000;fill-opacity:1;stroke:#000000;stroke-width:1.56989px;stroke-linecap:butt;stroke-linejoin:miter;stroke-opacity:1"
       d="m 45.335759,88.755214 0.37752,-23.615753 -6.898243,-1.982986 -11.777267,20.379572 c 0,0 7.311296,8.064695 18.29799,5.219167 z"
       id="path22-5-3-9-5-9-0-3"
       sodipodi:nodetypes="ccccc" />
    <path
       style="fill:#000000;fill-opacity:1;stroke:#000000;stroke-width:1.56989px;stroke-linecap:butt;stroke-linejoin:miter;stroke-opacity:1"
       d="M 23.250725,81.420939 36.196955,61.349678 31.641356,55.884261 11.793265,67.193929 c 0,0 1.514572,12.509942 11.45746,14.22701 z"
       id="path22-5-3-9-5-9-0-3-7"
       sodipodi:nodetypes="ccccc" />
    <path
       style="fill:#000000;fill-opacity:1;stroke:#000000;stroke-width:1.56989px;stroke-linecap:butt;stroke-linejoin:miter;stroke-opacity:1"
       d="M 10.440458,62.6959 30.6568,53.446919 30.265667,47.582436 6.5292018,45.318095 c 0,0 -5.2594541,10.919338 3.9112562,17.377805 z"
       id="path22-5-3-9-5-9-0-3-6"
       sodipodi:nodetypes="ccccc" />
    <path
       style="fill:#000000;fill-opacity:1;stroke:#000000;stroke-width:1.56989px;stroke-linecap:butt;stroke-linejoin:miter;stroke-opacity:1"
       d="M 8.6210013,40.097563 30.494729,44.79631 33.514939,38.334095 15.518416,23.978846 c 0,0 -11.6102488,3.457874 -6.8974147,16.118717 z"
       id="path22-5-3-9-5-9-0-3-6-4"
       sodipodi:nodetypes="ccccc" />
    <ellipse
       style="fill:#000000;fill-opacity:1;stroke:#000000;stroke-width:6.45696;paint-order:markers fill stroke"
       id="path315"
       cx="47.281796"
       cy="47.728874"
       rx="5.5068369"
       ry="5.4441495" />
  </g>
</svg>
