<?xml version="1.0" encoding="UTF-8" standalone="no"?>
<svg
   xmlns:dc="http://purl.org/dc/elements/1.1/"
   xmlns:cc="http://creativecommons.org/ns#"
   xmlns:rdf="http://www.w3.org/1999/02/22-rdf-syntax-ns#"
   xmlns:svg="http://www.w3.org/2000/svg"
   xmlns="http://www.w3.org/2000/svg"
   xmlns:sodipodi="http://sodipodi.sourceforge.net/DTD/sodipodi-0.dtd"
   xmlns:inkscape="http://www.inkscape.org/namespaces/inkscape"
   version="1.1"
   id="svg1457"
   width="95.502594"
   height="95.502594"
   viewBox="0 0 95.502594 95.502594"
   sodipodi:docname="eow.svg"
   inkscape:version="1.0.2-2 (e86c870879, 2021-01-15)">
  <metadata
     id="metadata1463">
    <rdf:RDF>
      <cc:Work
         rdf:about="">
        <dc:format>image/svg+xml</dc:format>
        <dc:type
           rdf:resource="http://purl.org/dc/dcmitype/StillImage" />
        <dc:title></dc:title>
      </cc:Work>
    </rdf:RDF>
  </metadata>
  <defs
     id="defs1461" />
  <sodipodi:namedview
     pagecolor="#ffffff"
     bordercolor="#666666"
     borderopacity="1"
     objecttolerance="10"
     gridtolerance="10"
     guidetolerance="10"
     inkscape:pageopacity="0"
     inkscape:pageshadow="2"
     inkscape:window-width="1920"
     inkscape:window-height="1017"
     id="namedview1459"
     showgrid="false"
     inkscape:zoom="5.6568543"
     inkscape:cx="77.819781"
     inkscape:cy="39.372225"
     inkscape:window-x="-8"
     inkscape:window-y="-8"
     inkscape:window-maximized="1"
     inkscape:current-layer="g1465" />
  <g
     inkscape:groupmode="layer"
     inkscape:label="Image"
     id="g1465">
    <path
       style="fill:none;stroke:#000000;stroke-width:2.66963;stroke-linecap:butt;stroke-linejoin:miter;stroke-miterlimit:4;stroke-dasharray:none;stroke-opacity:1"
       d="m 3.659419,5.0324608 36.162294,0.1060508 c 0,0 3.261783,4.3413276 7.592064,4.2917194 4.329152,-0.049602 7.46672,-4.2917194 7.46672,-4.2917194 H 91.57303 l 0.318143,86.6410364 -37.010676,0.106054 c 0,0 -2.68391,-4.223164 -7.456059,-4.223164 -4.772151,0 -6.860391,4.117116 -6.860391,4.117116 H 4.1896574 Z"
       id="path2030"
       sodipodi:nodetypes="ccsccccsccc" />
    <path
       style="fill:#000000;fill-opacity:1;stroke:#000000;stroke-width:1.33481px;stroke-linecap:butt;stroke-linejoin:miter;stroke-opacity:1"
       d="m 16.282375,73.47712 c -0.771096,0.680607 5.209081,-0.191168 5.272606,-0.335435 0.202329,-0.212223 0.592036,-8.151143 1.33269,-9.138812 0.703669,-0.760542 0.540907,-1.068565 3.39739,-0.859 0.902611,0.209682 0.63401,0.31572 1.874597,0.533053 0.918224,0.197626 1.594735,0.300146 2.286551,1.613306 1.144626,3.477224 1.542548,5.232238 1.569064,8.78484 -0.01549,0.386765 2.939955,0.457067 4.380437,0.501252 1.84426,-0.03967 -1.611411,-1.70283 -1.552612,-2.332958 -0.01133,-2.443596 0.695023,-3.967364 1.389105,-4.992443 1.130788,-2.038996 1.01439,-2.02917 1.521585,-3.043756 0.103582,-0.376141 -1.648366,-0.147293 -2.553757,-1.614489 -0.449652,-0.61928 -0.08242,-1.268495 -0.153104,-3.495498 0.02406,-0.424932 1.314539,-0.921566 1.301728,-1.093807 L 36.033163,56.919365 33.499515,45.369448 c 0.02675,-0.882751 -0.506878,-1.858895 0.151066,-2.636446 0.690721,-0.880912 1.592372,-0.39912 2.526395,0.286343 1.309805,1.088139 1.085445,0.891623 4.758254,2.788532 1.27588,0.890394 2.830979,0.680643 4.209601,0.9546 0.685832,-0.03578 1.562186,-1.149181 0.422301,-1.846715 -7.871508,-1.849207 -4.193997,-6.652195 -6.895653,-9.845564 -1.382769,-0.971625 -7.458089,-2.469089 -8.084736,-4.449252 -0.399301,-1.497479 -0.546219,-3.323488 -2.267669,-3.587775 -1.627943,-0.492396 -1.949817,1.470452 -11.695772,7.1678 -3.353342,3.557478 -2.005549,8.730159 -3.342027,12.719824 -0.647193,0.844607 1.794688,1.827166 2.890742,3.081949 1.456342,1.044804 0.515265,-0.549633 0.46867,-2.15588 0.430977,-2.333455 0.505755,-2.360258 2.305853,-4.967897 0.65049,-0.815898 1.312304,-0.265024 1.874677,0.881099 0.658883,1.649794 0.667262,2.404843 -0.112487,4.161786 -0.928427,1.368776 -1.161544,2.047355 -1.912172,3.393166 -0.94282,1.716653 0.0375,12.835293 0.05624,19.252938 -0.496831,0.814308 -2.17781,2.1293 -2.570421,2.909164 z"
       id="path2032"
       sodipodi:nodetypes="cccccccccccccccccccccccccccccccccc" />
    <path
       style="fill:#000000;fill-opacity:1;stroke:#000000;stroke-width:1.33481px;stroke-linecap:butt;stroke-linejoin:miter;stroke-opacity:1"
       d="m 79.128977,73.25428 c 0.771096,0.680606 -5.209082,-0.191169 -5.272607,-0.335435 -0.202329,-0.212224 -0.592036,-8.151143 -1.332689,-9.138813 -0.70367,-0.760541 -0.540907,-1.068564 -3.397389,-0.858999 -0.902611,0.209681 -0.634011,0.315719 -1.874598,0.533053 -0.918225,0.197626 -1.594736,0.300145 -2.286552,1.613306 -1.144625,3.477224 -1.542548,5.232238 -1.569063,8.78484 0.01549,0.386765 -2.939956,0.457066 -4.380437,0.501252 -1.84426,-0.03967 1.611411,-1.70283 1.552611,-2.332959 0.01133,-2.443596 -0.695022,-3.967363 -1.389105,-4.992443 -1.130788,-2.038995 -1.014389,-2.029169 -1.521585,-3.043755 -0.103581,-0.376141 1.648367,-0.147294 2.553757,-1.614489 0.449653,-0.619281 0.08242,-1.268496 0.153105,-3.495499 -0.02407,-0.424931 -1.314539,-0.921565 -1.301729,-1.093807 l 0.315492,-1.084007 2.533649,-11.549917 c -0.02675,-0.882751 0.506878,-1.858896 -0.151066,-2.636447 -0.690722,-0.880911 -1.592373,-0.39912 -2.526396,0.286344 -1.309804,1.088139 -1.085445,0.891623 -4.758253,2.788532 -1.27588,0.890394 -2.83098,0.680643 -4.209602,0.9546 -0.685832,-0.03578 -1.562185,-1.149182 -0.4223,-1.846715 7.871507,-1.849208 4.193997,-6.652195 6.895652,-9.845564 1.382769,-0.971625 7.458089,-2.46909 8.084737,-4.449252 0.3993,-1.497479 0.546218,-3.323489 2.267668,-3.587775 1.627944,-0.492396 1.949817,1.470452 11.695773,7.167799 3.353341,3.557478 2.005549,8.730159 3.342026,12.719824 0.647193,0.844607 -1.794688,1.827167 -2.890741,3.081949 -1.456342,1.044805 -0.515266,-0.549633 -0.468671,-2.15588 -0.430977,-2.333454 -0.505755,-2.360259 -2.305852,-4.967897 -0.65049,-0.815897 -1.312305,-0.265023 -1.874678,0.8811 -0.658883,1.649794 -0.667262,2.404843 0.112487,4.161786 0.928427,1.368775 1.161544,2.047355 1.912172,3.393166 0.94282,1.716653 -0.0375,12.835293 -0.05624,19.252938 0.49683,0.814307 2.177809,2.129299 2.570421,2.909164 z"
       id="path2032-8"
       sodipodi:nodetypes="cccccccccccccccccccccccccccccccccc" />
    <path
       style="fill:none;stroke:#000000;stroke-width:1.33481px;stroke-linecap:butt;stroke-linejoin:miter;stroke-opacity:1"
       d="m 37.753788,64.207167 16.686178,-38.78575 c 0,0 1.17982,-1.651747 0.471928,-6.489004"
       id="path2054" />
    <path
       style="fill:none;stroke:#000000;stroke-width:1.33481px;stroke-linecap:butt;stroke-linejoin:miter;stroke-opacity:1"
       d="M 57.657563,63.984327 40.971385,25.198577 c 0,0 -1.17982,-1.651747 -0.471928,-6.489005"
       id="path2054-5" />
    <path
       style="fill:none;stroke:#000000;stroke-width:2.66963;stroke-linecap:butt;stroke-linejoin:miter;stroke-miterlimit:4;stroke-dasharray:none;stroke-opacity:1"
       d="m 39.808843,18.703438 c 2.995172,0.311921 2.908228,6.062513 1.712401,6.600904"
       id="path2076"
       sodipodi:nodetypes="cc" />
    <path
       style="fill:none;stroke:#000000;stroke-width:2.66963;stroke-linecap:butt;stroke-linejoin:miter;stroke-miterlimit:4;stroke-dasharray:none;stroke-opacity:1"
       d="m 55.693739,19.344646 c -2.995173,0.311922 -2.908228,6.062513 -1.712401,6.600904"
       id="path2076-6"
       sodipodi:nodetypes="cc" />
  </g>
</svg>
