<svg width="80" height="80" xmlns="http://www.w3.org/2000/svg">
 <g>
  <title>Layer 1</title>
  <ellipse transform="translate(-286.471 -220.588)" fill="none" stroke-width="3" stroke-dasharray="null" stroke-opacity="null" cx="326.01694" cy="260.78946" id="svg_4" rx="35.18519" ry="34.81482" stroke="#000"/>
  <line transform="translate(-286.471 -220.588)" fill="none" stroke-width="3" stroke-dasharray="null" stroke-opacity="null" fill-opacity="null" x1="304.36785" y1="256.16823" x2="336.92474" y2="241.71568" id="svg_5" stroke-linejoin="null" stroke-linecap="null" stroke="#000"/>
  <ellipse transform="translate(-286.471 -220.588)" fill="#000000" stroke-width="3" stroke-dasharray="null" stroke-opacity="null" cx="306.5571" cy="260.47602" id="svg_7" rx="4.81715" stroke="#000"/>
  <ellipse transform="translate(-286.471 -220.588)" fill="#000000" stroke-width="3" stroke-dasharray="null" stroke-opacity="null" cx="338.6009" cy="246.16945" id="svg_10" rx="4.74416" stroke="#000"/>
  <ellipse transform="translate(-286.471 -220.588)" fill="#000000" stroke-width="3" stroke-dasharray="null" stroke-opacity="null" cx="334.14835" cy="281.13296" id="svg_11" rx="5.83906" stroke="#000"/>
  <ellipse transform="translate(-286.471 -220.588)" fill="#000000" stroke-width="3" stroke-dasharray="null" stroke-opacity="null" cx="328.45491" cy="266.82638" id="svg_12" rx="4.23321" stroke="#000"/>
  <line transform="translate(-286.471 -220.588)" fill="none" stroke-width="3" stroke-dasharray="null" stroke-opacity="null" fill-opacity="null" x1="304.9518" y1="265.07441" x2="326.84961" y2="270.76784" id="svg_13" stroke-linejoin="null" stroke-linecap="null" stroke="#000"/>
  <line transform="rotate(99.881 51.1823 37.6237)" fill="none" stroke-width="3" stroke-dasharray="null" stroke-opacity="null" fill-opacity="null" x1="40.19768" y1="34.14009" x2="62.16611" y2="41.10635" id="svg_15" stroke-linejoin="null" stroke-linecap="null" stroke="#000"/>
  <rect transform="rotate(-25.1993 36.5103 33.9017)" fill="#000000" stroke-width="3" stroke-dasharray="null" stroke-opacity="null" x="20.84372" y="29.06772" width="31.33326" height="9.66898" id="svg_16" stroke="#000"/>
  <rect transform="rotate(15.6371 36.0723 41.6397)" fill="#000000" stroke-width="3" stroke-dasharray="null" stroke-opacity="null" x="27.53806" y="36.51754" width="17.0691" height="10.24371" id="svg_17" stroke="#000"/>
  <rect transform="rotate(30.0904 46.5843 36.7487)" fill="#000000" stroke-width="3" stroke-dasharray="null" stroke-opacity="null" x="43.35007" y="30.52264" width="6.46926" height="12.45265" id="svg_18" stroke="#000"/>
 </g>

</svg>