<?xml version="1.0" encoding="UTF-8" standalone="no"?>
<svg
   xmlns:dc="http://purl.org/dc/elements/1.1/"
   xmlns:cc="http://creativecommons.org/ns#"
   xmlns:rdf="http://www.w3.org/1999/02/22-rdf-syntax-ns#"
   xmlns:svg="http://www.w3.org/2000/svg"
   xmlns="http://www.w3.org/2000/svg"
   xmlns:sodipodi="http://sodipodi.sourceforge.net/DTD/sodipodi-0.dtd"
   xmlns:inkscape="http://www.inkscape.org/namespaces/inkscape"
   version="1.1"
   id="svg2740"
   width="96"
   height="96"
   viewBox="0 0 96 96"
   sodipodi:docname="levi2.svg"
   inkscape:version="1.0.2-2 (e86c870879, 2021-01-15)">
  <metadata
     id="metadata2746">
    <rdf:RDF>
      <cc:Work
         rdf:about="">
        <dc:format>image/svg+xml</dc:format>
        <dc:type
           rdf:resource="http://purl.org/dc/dcmitype/StillImage" />
        <dc:title />
      </cc:Work>
    </rdf:RDF>
  </metadata>
  <defs
     id="defs2744">
    <inkscape:path-effect
       effect="bspline"
       id="path-effect4042"
       is_visible="true"
       lpeversion="1"
       weight="33.333333"
       steps="2"
       helper_size="0"
       apply_no_weight="true"
       apply_with_weight="true"
       only_selected="false" />
    <inkscape:path-effect
       effect="bspline"
       id="path-effect858"
       is_visible="true"
       lpeversion="1"
       weight="33.333333"
       steps="2"
       helper_size="0"
       apply_no_weight="true"
       apply_with_weight="true"
       only_selected="false" />
  </defs>
  <sodipodi:namedview
     pagecolor="#ffffff"
     bordercolor="#666666"
     borderopacity="1"
     objecttolerance="10"
     gridtolerance="10"
     guidetolerance="10"
     inkscape:pageopacity="0"
     inkscape:pageshadow="2"
     inkscape:window-width="1920"
     inkscape:window-height="1017"
     id="namedview2742"
     showgrid="false"
     inkscape:zoom="4.4270833"
     inkscape:cx="60.439377"
     inkscape:cy="76.84699"
     inkscape:window-x="-8"
     inkscape:window-y="-8"
     inkscape:window-maximized="1"
     inkscape:current-layer="g2748"
     inkscape:document-rotation="0" />
  <g
     inkscape:groupmode="layer"
     inkscape:label="Image"
     id="g2748">
    <path
       style="fill:#000000;fill-opacity:1;stroke:#000000;stroke-width:1.02434px;stroke-linecap:butt;stroke-linejoin:miter;stroke-opacity:1"
       d="m 29.566083,49.723363 36.504769,0.0753 c 0,0 3.425007,-0.224353 4.96671,3.456451 1.673175,3.994696 -1.828753,6.835659 -1.828753,6.835659 l -19.323202,15.96494 c 0,0 -1.321245,1.458724 -3.550847,-0.24312 C 44.105161,74.11075 26.474803,59.553895 26.474803,59.553895 c 0,0 -3.33831,-2.779602 -1.775422,-6.351527 1.505572,-3.440934 4.866702,-3.479005 4.866702,-3.479005 z"
       id="path2646"
       sodipodi:nodetypes="ccsccscscc" />
    <path
       style="fill:#000000;fill-opacity:1;stroke:#000000;stroke-width:1.02434px;stroke-linecap:butt;stroke-linejoin:miter;stroke-opacity:1"
       d="m 28.895301,45.688361 36.504768,-0.0753 c 0,0 3.425008,0.224354 4.966711,-3.45645 1.673175,-3.994696 -1.828754,-6.83566 -1.828754,-6.83566 L 49.214825,19.35601 c 0,0 -1.321244,-1.458724 -3.550847,0.243121 C 43.434379,21.300974 25.80402,35.85783 25.80402,35.85783 c 0,0 -3.33831,2.7796 -1.775422,6.351527 1.505573,3.440932 4.866703,3.479003 4.866703,3.479004 z"
       id="path2646-4"
       sodipodi:nodetypes="ccsccscscc"
       inkscape:transform-center-x="-2.5043461"
       inkscape:transform-center-y="-27.548534" />
    <path
       style="fill:#000000;fill-opacity:1;stroke:#000000;stroke-width:0.363456px;stroke-linecap:butt;stroke-linejoin:miter;stroke-opacity:1"
       d="m 16.348716,41.409233 0.0266,13.011445 c 0,0 -0.07923,1.220781 1.220868,1.770292 1.41098,0.596374 2.414449,-0.651824 2.414449,-0.651824 l 5.639036,-6.887395 c 0,0 0.515241,-0.470935 -0.08589,-1.265635 -0.601114,-0.794699 -5.742795,-7.078712 -5.742795,-7.078712 0,0 -0.981794,-1.18988 -2.243447,-0.632817 -1.215387,0.536634 -1.228833,1.734646 -1.228833,1.734646 z"
       id="path2646-4-0"
       sodipodi:nodetypes="ccsccscscc"
       inkscape:transform-center-x="-9.7305163"
       inkscape:transform-center-y="0.89262689" />
    <path
       style="fill:#000000;fill-opacity:1;stroke:#000000;stroke-width:0.363456px;stroke-linecap:butt;stroke-linejoin:miter;stroke-opacity:1"
       d="m 78.888728,40.728663 -0.0266,13.011445 c 0,0 0.07923,1.220781 -1.220866,1.770291 -1.410982,0.596374 -2.414451,-0.651824 -2.414451,-0.651824 L 69.587778,47.97118 c 0,0 -0.515241,-0.470934 0.08588,-1.265635 0.601113,-0.794698 5.742794,-7.078712 5.742794,-7.078712 0,0 0.981795,-1.189879 2.243448,-0.632816 1.215388,0.536633 1.228833,1.734646 1.228833,1.734646 z"
       id="path2646-4-0-8"
       sodipodi:nodetypes="ccsccscscc"
       inkscape:transform-center-x="9.7305186"
       inkscape:transform-center-y="0.89262678" />
    <path
       style="fill:#000000;fill-opacity:1;stroke:#000000;stroke-width:1.06463px;stroke-linecap:butt;stroke-linejoin:miter;stroke-opacity:1"
       d="m 47.903012,2.2799617 c -3.490491,-0.1726061 -6.93156,3.2815515 -7.050641,6.8407739 -0.119082,3.5592224 3.082768,7.2223104 6.572355,7.3937744 3.489588,0.171465 7.267471,-3.147448 7.387529,-6.7055966 0.120058,-3.5581485 -3.418753,-7.3563457 -6.909243,-7.5289517 z"
       id="path856"
       inkscape:path-effect="#path-effect858"
       inkscape:original-d="M 47.853595,-1.3468058 C 44.413588,2.1084181 40.972519,5.5625763 37.530387,9.0156659 40.733365,12.679892 43.935214,16.34298 47.13613,20.005151 50.915306,16.687104 54.693188,13.36819 58.470238,10.048011 54.932351,6.2507295 51.39354,2.4525324 47.853595,-1.3468058 Z"
       sodipodi:nodetypes="ccccc" />
    <path
       style="fill:#000000;fill-opacity:1;stroke:#000000;stroke-width:1.06463px;stroke-linecap:butt;stroke-linejoin:miter;stroke-opacity:1"
       d="m 48.350196,79.164421 c -3.49049,-0.172606 -6.931559,3.281552 -7.050641,6.840775 -0.119082,3.559223 3.082768,7.222311 6.572356,7.393775 3.489587,0.171464 7.267471,-3.147449 7.387529,-6.705597 0.120058,-3.558148 -3.418754,-7.356347 -6.909244,-7.528953 z"
       id="path856-1"
       inkscape:path-effect="#path-effect4042"
       inkscape:original-d="m 48.300779,75.537654 c -3.440006,3.455224 -6.881075,6.909382 -10.323208,10.362473 3.202978,3.664226 6.404827,7.327314 9.605743,10.989485 3.779176,-3.318048 7.55706,-6.636961 11.334109,-9.95714 -3.537887,-3.797282 -7.076699,-7.59548 -10.616644,-11.394818 z"
       sodipodi:nodetypes="ccccc" />
  </g>
</svg>
