<?xml version="1.0" encoding="UTF-8" standalone="no"?>
<svg
   xmlns:dc="http://purl.org/dc/elements/1.1/"
   xmlns:cc="http://creativecommons.org/ns#"
   xmlns:rdf="http://www.w3.org/1999/02/22-rdf-syntax-ns#"
   xmlns:svg="http://www.w3.org/2000/svg"
   xmlns="http://www.w3.org/2000/svg"
   xmlns:sodipodi="http://sodipodi.sourceforge.net/DTD/sodipodi-0.dtd"
   xmlns:inkscape="http://www.inkscape.org/namespaces/inkscape"
   version="1.1"
   id="svg1133"
   width="95.502594"
   height="95.502594"
   viewBox="0 0 95.502594 95.502594"
   sodipodi:docname="lw.svg"
   inkscape:version="1.0.2-2 (e86c870879, 2021-01-15)">
  <metadata
     id="metadata1139">
    <rdf:RDF>
      <cc:Work
         rdf:about="">
        <dc:format>image/svg+xml</dc:format>
        <dc:type
           rdf:resource="http://purl.org/dc/dcmitype/StillImage" />
        <dc:title />
      </cc:Work>
    </rdf:RDF>
  </metadata>
  <defs
     id="defs1137" />
  <sodipodi:namedview
     pagecolor="#ffffff"
     bordercolor="#666666"
     borderopacity="1"
     objecttolerance="10"
     gridtolerance="10"
     guidetolerance="10"
     inkscape:pageopacity="0"
     inkscape:pageshadow="2"
     inkscape:window-width="1920"
     inkscape:window-height="1017"
     id="namedview1135"
     showgrid="false"
     inkscape:zoom="8.0000001"
     inkscape:cx="60.65214"
     inkscape:cy="52.675061"
     inkscape:window-x="-8"
     inkscape:window-y="-8"
     inkscape:window-maximized="1"
     inkscape:current-layer="g1141"
     inkscape:document-rotation="0" />
  <g
     inkscape:groupmode="layer"
     inkscape:label="Image"
     id="g1141">
    <ellipse
       style="fill:none;stroke:#000000;stroke-width:1.45249;stroke-miterlimit:4;stroke-dasharray:none;paint-order:markers fill stroke"
       id="path1145"
       cx="47.239197"
       cy="47.793457"
       rx="45.297188"
       ry="45.761505" />
    <path
       style="fill:none;stroke:#000000;stroke-width:1.46167px;stroke-linecap:butt;stroke-linejoin:miter;stroke-opacity:1"
       d="M 8.4917721,71.88002 85.487496,72.228261 Z"
       id="path1708" />
    <path
       style="fill:none;stroke:#000000;stroke-width:1.45249px;stroke-linecap:butt;stroke-linejoin:miter;stroke-opacity:1"
       d="m 22.57223,86.157841 c 0,0 0.696479,-2.205517 5.455751,-4.643194 4.759273,-2.437675 5.803991,-1.625117 12.884862,-5.223592 7.080869,-3.598475 5.920071,-4.178874 5.920071,-4.178874"
       id="path1710" />
    <path
       style="fill:none;stroke:#000000;stroke-width:1.45249px;stroke-linecap:butt;stroke-linejoin:miter;stroke-opacity:1"
       d="m 73.177222,85.967 c 0,0 -0.696478,-2.205517 -5.455751,-4.643194 C 62.962198,78.886131 61.91748,79.698689 54.836609,76.100214 47.75574,72.501739 48.916538,71.921339 48.916538,71.921339"
       id="path1710-6" />
    <path
       style="fill:none;stroke:#000000;stroke-width:1.45249px;stroke-linecap:butt;stroke-linejoin:miter;stroke-opacity:1"
       d="m 47.829637,93.697823 c 0,0 1.509038,-18.108456 4.294955,-19.037093"
       id="path1732" />
    <path
       style="fill:none;stroke:#000000;stroke-width:1.45249px;stroke-linecap:butt;stroke-linejoin:miter;stroke-opacity:1"
       d="m 47.829637,93.697823 c 0,0 -1.509036,-18.108456 -4.294953,-19.037093"
       id="path1732-8" />
    <path
       style="fill:none;stroke:#000000;stroke-width:1.45249px;stroke-linecap:butt;stroke-linejoin:miter;stroke-opacity:1"
       d="m 49.872394,79.591584 c 0,0 6.547545,8.216527 11.040959,12.132216"
       id="path1754"
       sodipodi:nodetypes="cc" />
    <path
       style="fill:none;stroke:#000000;stroke-width:1.45249px;stroke-linecap:butt;stroke-linejoin:miter;stroke-opacity:1"
       d="m 45.558232,79.810957 c 0,0 -6.547546,8.216527 -11.040958,12.132216"
       id="path1754-5"
       sodipodi:nodetypes="cc" />
    <path
       style="fill:none;stroke:#000000;stroke-width:1.45249px;stroke-linecap:butt;stroke-linejoin:miter;stroke-opacity:1"
       d="m 48.916538,71.921339 c 0,0 5.609748,-4.173108 12.478251,-4.173108 6.868504,0 18.562392,-5.936781 18.562392,-14.923606"
       id="path1789"
       sodipodi:nodetypes="csc" />
    <path
       style="fill:none;stroke:#000000;stroke-width:1.45249px;stroke-linecap:butt;stroke-linejoin:miter;stroke-opacity:1"
       d="M 46.832914,72.112181 C 47.568325,71.989619 41.457741,67.899977 34.354663,67.939072 27.486264,67.976881 15.61071,62.546976 15.61071,53.56015"
       id="path1789-7"
       sodipodi:nodetypes="csc" />
    <path
       style="fill:none;stroke:#000000;stroke-width:1.45249px;stroke-linecap:butt;stroke-linejoin:miter;stroke-opacity:1"
       d="m 47.914549,49.389429 -0.06418,22.531258"
       id="path1811" />
    <path
       style="fill:none;stroke:#000000;stroke-width:1.45249px;stroke-linecap:butt;stroke-linejoin:miter;stroke-opacity:1"
       d="m 47.978742,67.812423 c 0,0 -11.10515,-5.520479 -16.882396,-7.061079 C 25.3191,59.210746 8.5008967,55.295057 8.6292795,36.037571 8.7576636,16.780086 32.508562,5.2255958 47.5294,5.4823627"
       id="path1813"
       sodipodi:nodetypes="cssc" />
    <path
       style="fill:none;stroke:#000000;stroke-width:1.45249px;stroke-linecap:butt;stroke-linejoin:miter;stroke-opacity:1"
       d="m 47.550984,67.976962 c 0,0 11.10515,-5.520479 16.882397,-7.061078 C 70.210626,59.375286 86.088427,55.12907 85.960044,35.871585 85.83166,16.6141 62.55024,5.2255958 47.5294,5.4823627"
       id="path1813-3"
       sodipodi:nodetypes="cssc" />
    <path
       style="fill:none;stroke:#000000;stroke-width:1.45249px;stroke-linecap:butt;stroke-linejoin:miter;stroke-opacity:1"
       d="m 45.090119,66.528591 c 0,0 -3.979881,-10.013893 -20.348743,-18.102036 C 8.372514,40.338411 11.582094,32.057692 12.031435,24.290506"
       id="path1835" />
    <path
       style="fill:none;stroke:#000000;stroke-width:1.45249px;stroke-linecap:butt;stroke-linejoin:miter;stroke-opacity:1"
       d="m 50.275337,66.672216 c 0,0 3.979881,-10.013893 20.348743,-18.102036 16.368862,-8.088144 12.656763,-16.622485 12.207421,-24.389671"
       id="path1835-6"
       sodipodi:nodetypes="csc" />
    <path
       style="fill:none;stroke:#000000;stroke-width:1.45249px;stroke-linecap:butt;stroke-linejoin:miter;stroke-opacity:1"
       d="m 24.227843,47.913021 c 0,0 -2.952815,-10.33485 -0.706107,-14.828263 2.246706,-4.493414 10.72,-15.662755 10.078084,-19.963594 C 32.957903,8.8203253 31.930837,8.5635598 31.930837,8.5635598"
       id="path1857" />
    <path
       style="fill:none;stroke:#000000;stroke-width:1.45249px;stroke-linecap:butt;stroke-linejoin:miter;stroke-opacity:1"
       d="m 71.403029,48.024498 c 0,0 2.952815,-10.33485 0.706106,-14.828264 -2.246706,-4.493413 -10.72,-15.662753 -10.078083,-19.963593 0.641916,-4.3008385 1.668982,-4.557604 1.668982,-4.557604"
       id="path1857-1" />
    <path
       style="fill:none;stroke:#000000;stroke-width:1.45249px;stroke-linecap:butt;stroke-linejoin:miter;stroke-opacity:1"
       d="m 47.964162,52.017948 c 0,0 -11.710705,0.771635 -11.710705,-5.038326 0,-4.993143 4.448252,-6.85394 11.619924,-6.76316"
       id="path1881"
       sodipodi:nodetypes="csc" />
    <path
       style="fill:none;stroke:#000000;stroke-width:1.45249px;stroke-linecap:butt;stroke-linejoin:miter;stroke-opacity:1"
       d="m 47.7826,52.017948 c 0,0 11.710705,0.771635 11.710705,-5.038326 0,-4.993143 -4.470947,-6.649684 -11.619924,-6.76316"
       id="path1881-3"
       sodipodi:nodetypes="csc" />
    <path
       style="fill:none;stroke:#000000;stroke-width:1.45249px;stroke-linecap:butt;stroke-linejoin:miter;stroke-opacity:1"
       d="m 40.610928,41.442001 7.303621,7.947428 7.584407,-7.856647"
       id="path1943" />
    <ellipse
       style="fill:#000000;fill-opacity:1;stroke:#000000;stroke-width:1.45249;stroke-miterlimit:4;stroke-dasharray:none;paint-order:markers fill stroke"
       id="path1945"
       cx="47.11216"
       cy="14.212422"
       rx="1.4443115"
       ry="2.2467067" />
    <ellipse
       style="fill:#000000;fill-opacity:1;stroke:#000000;stroke-width:1.45249;stroke-miterlimit:4;stroke-dasharray:none;paint-order:markers fill stroke"
       id="path1945-5"
       cx="43.035984"
       cy="20.11805"
       rx="1.4443115"
       ry="2.2467067" />
    <ellipse
       style="fill:#000000;fill-opacity:1;stroke:#000000;stroke-width:1.45249;stroke-miterlimit:4;stroke-dasharray:none;paint-order:markers fill stroke"
       id="path1945-8"
       cx="51.316704"
       cy="20.05386"
       rx="1.4443115"
       ry="2.2467067" />
    <ellipse
       style="fill:#000000;fill-opacity:1;stroke:#000000;stroke-width:1.45249;stroke-miterlimit:4;stroke-dasharray:none;paint-order:markers fill stroke"
       id="path1945-2"
       cx="38.863529"
       cy="25.831102"
       rx="1.4443115"
       ry="2.2467067" />
    <ellipse
       style="fill:#000000;fill-opacity:1;stroke:#000000;stroke-width:1.45249;stroke-miterlimit:4;stroke-dasharray:none;paint-order:markers fill stroke"
       id="path1945-7"
       cx="47.336826"
       cy="26.08787"
       rx="1.4443115"
       ry="2.2467067" />
    <ellipse
       style="fill:#000000;fill-opacity:1;stroke:#000000;stroke-width:1.45249;stroke-miterlimit:4;stroke-dasharray:none;paint-order:markers fill stroke"
       id="path1945-7-0"
       cx="55.938496"
       cy="26.216255"
       rx="1.4443115"
       ry="2.2467067" />
    <ellipse
       style="fill:#000000;fill-opacity:1;stroke:#000000;stroke-width:1.45249;stroke-miterlimit:4;stroke-dasharray:none;paint-order:markers fill stroke"
       id="path1945-7-2"
       cx="51.445087"
       cy="32.827988"
       rx="1.4443115"
       ry="2.2467067" />
    <ellipse
       style="fill:#000000;fill-opacity:1;stroke:#000000;stroke-width:1.45249;stroke-miterlimit:4;stroke-dasharray:none;paint-order:markers fill stroke"
       id="path1945-7-5"
       cx="42.458263"
       cy="32.378647"
       rx="1.4443115"
       ry="2.2467067" />
    <path
       style="fill:none;stroke:#000000;stroke-width:1.45249px;stroke-linecap:butt;stroke-linejoin:miter;stroke-opacity:1"
       d="m 38.273327,50.17964 c 0,0 2.405687,-6.853941 9.554664,-6.853941"
       id="path2032" />
    <path
       style="fill:none;stroke:#000000;stroke-width:1.45249px;stroke-linecap:butt;stroke-linejoin:miter;stroke-opacity:1"
       d="m 56.937897,50.19555 c 0,0 -2.405688,-6.85394 -9.554665,-6.85394"
       id="path2032-7" />
    <path
       style="fill:none;stroke:#000000;stroke-width:1.45249px;stroke-linecap:butt;stroke-linejoin:miter;stroke-opacity:1"
       d="m 47.532954,40.216462 0.629791,0.0056"
       id="path2054" />
  </g>
</svg>
