<?xml version="1.0" encoding="UTF-8" standalone="no"?>
<svg
   xmlns:dc="http://purl.org/dc/elements/1.1/"
   xmlns:cc="http://creativecommons.org/ns#"
   xmlns:rdf="http://www.w3.org/1999/02/22-rdf-syntax-ns#"
   xmlns:svg="http://www.w3.org/2000/svg"
   xmlns="http://www.w3.org/2000/svg"
   xmlns:sodipodi="http://sodipodi.sourceforge.net/DTD/sodipodi-0.dtd"
   xmlns:inkscape="http://www.inkscape.org/namespaces/inkscape"
   version="1.1"
   id="svg1133"
   width="95.502594"
   height="95.502594"
   viewBox="0 0 95.502594 95.502594"
   sodipodi:docname="lw2.svg"
   inkscape:version="1.0.2-2 (e86c870879, 2021-01-15)">
  <metadata
     id="metadata1139">
    <rdf:RDF>
      <cc:Work
         rdf:about="">
        <dc:format>image/svg+xml</dc:format>
        <dc:type
           rdf:resource="http://purl.org/dc/dcmitype/StillImage" />
        <dc:title></dc:title>
      </cc:Work>
    </rdf:RDF>
  </metadata>
  <defs
     id="defs1137" />
  <sodipodi:namedview
     pagecolor="#ffffff"
     bordercolor="#666666"
     borderopacity="1"
     objecttolerance="10"
     gridtolerance="10"
     guidetolerance="10"
     inkscape:pageopacity="0"
     inkscape:pageshadow="2"
     inkscape:window-width="1920"
     inkscape:window-height="1017"
     id="namedview1135"
     showgrid="false"
     inkscape:zoom="11.313709"
     inkscape:cx="75.245766"
     inkscape:cy="38.989699"
     inkscape:window-x="-8"
     inkscape:window-y="-8"
     inkscape:window-maximized="1"
     inkscape:current-layer="g1141"
     inkscape:document-rotation="0" />
  <g
     inkscape:groupmode="layer"
     inkscape:label="Image"
     id="g1141"
     style="display:inline">
    <ellipse
       style="fill:none;stroke:#000000;stroke-width:2.87536;stroke-miterlimit:4;stroke-dasharray:none;paint-order:markers fill stroke"
       id="path1145"
       cx="47.581917"
       cy="47.7784"
       rx="44.782211"
       ry="45.241245" />
    <path
       style="fill:none;stroke:#000000;stroke-width:2.87536;stroke-linecap:butt;stroke-linejoin:miter;stroke-miterlimit:4;stroke-dasharray:none;stroke-opacity:1"
       d="M 9.2750095,71.591123 85.395375,71.935406 Z"
       id="path1708" />
    <path
       style="fill:none;stroke:#000000;stroke-width:2.87536;stroke-linecap:butt;stroke-linejoin:miter;stroke-miterlimit:4;stroke-dasharray:none;stroke-opacity:1"
       d="m 23.195387,85.706622 c 0,0 0.688561,-2.180444 5.393726,-4.590406 4.705166,-2.409962 5.738006,-1.606642 12.738376,-5.164206 7.000366,-3.557564 5.852765,-4.131364 5.852765,-4.131364"
       id="path1710" />
    <path
       style="fill:none;stroke:#000000;stroke-width:2.87536;stroke-linecap:butt;stroke-linejoin:miter;stroke-miterlimit:4;stroke-dasharray:none;stroke-opacity:1"
       d="m 73.225056,85.51795 c 0,0 -0.688561,-2.180443 -5.393725,-4.590406 -4.705165,-2.409961 -5.738006,-1.606641 -12.738376,-5.164204 -7.000367,-3.557565 -5.852766,-4.131367 -5.852766,-4.131367"
       id="path1710-6" />
    <path
       style="fill:none;stroke:#000000;stroke-width:2.87536;stroke-linecap:butt;stroke-linejoin:miter;stroke-miterlimit:4;stroke-dasharray:none;stroke-opacity:1"
       d="m 48.165646,93.160882 c 0,0 1.491881,-17.902583 4.246127,-18.820662"
       id="path1732" />
    <path
       style="fill:none;stroke:#000000;stroke-width:2.87536;stroke-linecap:butt;stroke-linejoin:miter;stroke-miterlimit:4;stroke-dasharray:none;stroke-opacity:1"
       d="m 48.165646,93.160882 c 0,0 -1.49188,-17.902583 -4.246124,-18.820662"
       id="path1732-8" />
    <path
       style="fill:none;stroke:#000000;stroke-width:2.87536;stroke-linecap:butt;stroke-linejoin:miter;stroke-miterlimit:4;stroke-dasharray:none;stroke-opacity:1"
       d="m 50.185179,79.215015 c 0,0 6.473106,8.123116 10.915436,11.994287"
       id="path1754"
       sodipodi:nodetypes="cc" />
    <path
       style="fill:none;stroke:#000000;stroke-width:2.87536;stroke-linecap:butt;stroke-linejoin:miter;stroke-miterlimit:4;stroke-dasharray:none;stroke-opacity:1"
       d="m 45.920064,79.431894 c 0,0 -6.473107,8.123116 -10.915435,11.994287"
       id="path1754-5"
       sodipodi:nodetypes="cc" />
    <path
       style="fill:none;stroke:#000000;stroke-width:2.87536;stroke-linecap:butt;stroke-linejoin:miter;stroke-miterlimit:4;stroke-dasharray:none;stroke-opacity:1"
       d="m 49.240189,71.631973 c 0,0 5.545972,-4.125665 12.336386,-4.125665 6.790417,0 17.843065,-6.758801 17.843065,-15.643457"
       id="path1789"
       sodipodi:nodetypes="csc" />
    <path
       style="fill:none;stroke:#000000;stroke-width:2.87536;stroke-linecap:butt;stroke-linejoin:miter;stroke-miterlimit:4;stroke-dasharray:none;stroke-opacity:1"
       d="M 47.180254,71.820646 C 47.907305,71.699478 41.866191,67.65633 34.843868,67.69498 28.053556,67.73236 16.440086,61.347596 16.440086,52.462941"
       id="path1789-7"
       sodipodi:nodetypes="csc" />
    <path
       style="fill:none;stroke:#000000;stroke-width:2.87536;stroke-linecap:butt;stroke-linejoin:miter;stroke-miterlimit:4;stroke-dasharray:none;stroke-opacity:1"
       d="m 48.249592,49.356227 -0.06344,22.275101"
       id="path1811" />
    <path
       style="fill:none;stroke:#000000;stroke-width:2.87536;stroke-linecap:butt;stroke-linejoin:miter;stroke-miterlimit:4;stroke-dasharray:none;stroke-opacity:1"
       d="m 48.313055,67.56977 c 0,0 -10.978896,-5.457716 -16.690461,-6.980801 C 25.911029,59.065885 10.554768,55.194714 10.681691,36.156165 10.808616,17.117616 34.289492,5.6944889 49.139558,5.9483351"
       id="path1813"
       sodipodi:nodetypes="cssc" />
    <path
       style="fill:none;stroke:#000000;stroke-width:2.87536;stroke-linecap:butt;stroke-linejoin:miter;stroke-miterlimit:4;stroke-dasharray:none;stroke-opacity:1"
       d="m 47.890161,67.732438 c 0,0 10.978896,-5.457715 16.690462,-6.9808 C 70.292187,59.228555 83.983961,55.246074 83.857038,36.207527 83.730114,17.168979 62.718892,5.6944889 47.868822,5.9483351"
       id="path1813-3"
       sodipodi:nodetypes="cssc" />
    <path
       style="fill:none;stroke:#000000;stroke-width:2.87536;stroke-linecap:butt;stroke-linejoin:miter;stroke-miterlimit:4;stroke-dasharray:none;stroke-opacity:1"
       d="m 45.457272,66.300533 c 0,0 -3.172191,-9.264674 -19.354957,-17.260864 C 9.91955,41.043479 13.092641,32.856902 13.536873,25.178019"
       id="path1835"
       sodipodi:nodetypes="csc" />
    <path
       style="fill:none;stroke:#000000;stroke-width:2.87536;stroke-linecap:butt;stroke-linejoin:miter;stroke-miterlimit:4;stroke-dasharray:none;stroke-opacity:1"
       d="m 50.583541,66.442528 c 0,0 3.934633,-9.900047 20.1174,-17.896236 16.182766,-7.996191 11.231113,-15.532973 10.78688,-23.211854"
       id="path1835-6"
       sodipodi:nodetypes="csc" />
    <path
       style="fill:none;stroke:#000000;stroke-width:2.87536;stroke-linecap:butt;stroke-linejoin:miter;stroke-miterlimit:4;stroke-dasharray:none;stroke-opacity:1"
       d="m 24.832178,47.896603 c 0,0 -2.919245,-10.217355 -0.69808,-14.659682 2.221166,-4.442328 10.686515,-14.954356 10.051897,-19.2063 -0.63462,-4.2519414 -1.650008,-4.8593424 -1.650008,-4.8593424"
       id="path1857"
       sodipodi:nodetypes="cssc" />
    <path
       style="fill:none;stroke:#000000;stroke-width:2.87536;stroke-linecap:butt;stroke-linejoin:miter;stroke-miterlimit:4;stroke-dasharray:none;stroke-opacity:1"
       d="m 71.471033,48.006814 c 0,0 2.919245,-10.217354 0.698078,-14.659685 C 69.94795,28.904802 61.570987,17.862446 62.205606,13.610502 62.840224,9.3585604 63.855614,9.1047127 63.855614,9.1047127"
       id="path1857-1" />
    <path
       style="fill:none;stroke:#000000;stroke-width:2.87536;stroke-linecap:butt;stroke-linejoin:miter;stroke-miterlimit:4;stroke-dasharray:none;stroke-opacity:1"
       d="m 48.298642,51.954862 c 0,0 -11.577569,0.762863 -11.577569,-4.981046 0,-4.936376 4.39768,-6.776019 11.487818,-6.686271"
       id="path1881"
       sodipodi:nodetypes="csc" />
    <path
       style="fill:none;stroke:#000000;stroke-width:2.87536;stroke-linecap:butt;stroke-linejoin:miter;stroke-miterlimit:4;stroke-dasharray:none;stroke-opacity:1"
       d="m 48.119143,51.954862 c 0,0 11.577567,0.762863 11.577567,-4.981046 0,-4.936376 -4.420117,-6.574085 -11.487819,-6.686271"
       id="path1881-3"
       sodipodi:nodetypes="csc" />
    <path
       style="fill:none;stroke:#000000;stroke-width:2.87536;stroke-linecap:butt;stroke-linejoin:miter;stroke-miterlimit:4;stroke-dasharray:none;stroke-opacity:1"
       d="m 41.029005,41.499152 7.220587,7.857075 7.49818,-7.767326"
       id="path1943" />
    <ellipse
       style="fill:#000000;fill-opacity:1;stroke:#000000;stroke-width:1.43624;stroke-miterlimit:4;stroke-dasharray:none;paint-order:markers fill stroke"
       id="path1945"
       cx="47.456322"
       cy="14.579145"
       rx="1.4278913"
       ry="2.2211642" />
    <ellipse
       style="fill:#000000;fill-opacity:1;stroke:#000000;stroke-width:1.43597;stroke-miterlimit:4;stroke-dasharray:none;paint-order:markers fill stroke"
       id="path1945-5"
       cx="43.426491"
       cy="20.417633"
       rx="1.4278913"
       ry="2.2211642" />
    <ellipse
       style="fill:#000000;fill-opacity:1;stroke:#000000;stroke-width:1.43597;stroke-miterlimit:4;stroke-dasharray:none;paint-order:markers fill stroke"
       id="path1945-8"
       cx="51.613068"
       cy="20.354172"
       rx="1.4278913"
       ry="2.2211642" />
    <ellipse
       style="fill:#000000;fill-opacity:1;stroke:#000000;stroke-width:1.43597;stroke-miterlimit:4;stroke-dasharray:none;paint-order:markers fill stroke"
       id="path1945-2"
       cx="39.301472"
       cy="26.065731"
       rx="1.4278913"
       ry="2.2211642" />
    <ellipse
       style="fill:#000000;fill-opacity:1;stroke:#000000;stroke-width:1.43597;stroke-miterlimit:4;stroke-dasharray:none;paint-order:markers fill stroke"
       id="path1945-7"
       cx="47.678436"
       cy="26.319584"
       rx="1.4278913"
       ry="2.2211642" />
    <ellipse
       style="fill:#000000;fill-opacity:1;stroke:#000000;stroke-width:1.43597;stroke-miterlimit:4;stroke-dasharray:none;paint-order:markers fill stroke"
       id="path1945-7-0"
       cx="56.18232"
       cy="26.446508"
       rx="1.4278913"
       ry="2.2211642" />
    <ellipse
       style="fill:#000000;fill-opacity:1;stroke:#000000;stroke-width:1.43597;stroke-miterlimit:4;stroke-dasharray:none;paint-order:markers fill stroke"
       id="path1945-7-2"
       cx="51.73999"
       cy="32.983067"
       rx="1.4278913"
       ry="2.2211642" />
    <ellipse
       style="fill:#000000;fill-opacity:1;stroke:#000000;stroke-width:1.43597;stroke-miterlimit:4;stroke-dasharray:none;paint-order:markers fill stroke"
       id="path1945-7-5"
       cx="42.855343"
       cy="32.538841"
       rx="1.4278913"
       ry="2.2211642" />
    <path
       style="fill:none;stroke:#000000;stroke-width:2.87536;stroke-linecap:butt;stroke-linejoin:miter;stroke-miterlimit:4;stroke-dasharray:none;stroke-opacity:1"
       d="m 38.71798,50.137454 c 0,0 2.378337,-6.776019 9.446038,-6.776019"
       id="path2032" />
    <path
       style="fill:none;stroke:#000000;stroke-width:2.87536;stroke-linecap:butt;stroke-linejoin:miter;stroke-miterlimit:4;stroke-dasharray:none;stroke-opacity:1"
       d="m 57.170354,50.153182 c 0,0 -2.378338,-6.776017 -9.44604,-6.776017"
       id="path2032-7" />
    <path
       style="fill:none;stroke:#000000;stroke-width:1.43597px;stroke-linecap:butt;stroke-linejoin:miter;stroke-opacity:1"
       d="m 47.872336,40.287545 0.62263,0.0054"
       id="path2054" />
  </g>
</svg>
