<?xml version="1.0" encoding="UTF-8" standalone="no"?>
<svg
   xmlns:dc="http://purl.org/dc/elements/1.1/"
   xmlns:cc="http://creativecommons.org/ns#"
   xmlns:rdf="http://www.w3.org/1999/02/22-rdf-syntax-ns#"
   xmlns:svg="http://www.w3.org/2000/svg"
   xmlns="http://www.w3.org/2000/svg"
   xmlns:sodipodi="http://sodipodi.sourceforge.net/DTD/sodipodi-0.dtd"
   xmlns:inkscape="http://www.inkscape.org/namespaces/inkscape"
   version="1.1"
   id="svg2056"
   width="96"
   height="96"
   viewBox="0 0 96 96"
   sodipodi:docname="sos.svg"
   inkscape:version="1.0.2-2 (e86c870879, 2021-01-15)">
  <metadata
     id="metadata2062">
    <rdf:RDF>
      <cc:Work
         rdf:about="">
        <dc:format>image/svg+xml</dc:format>
        <dc:type
           rdf:resource="http://purl.org/dc/dcmitype/StillImage" />
        <dc:title />
      </cc:Work>
    </rdf:RDF>
  </metadata>
  <defs
     id="defs2060">
    <inkscape:path-effect
       effect="bspline"
       id="path-effect858"
       is_visible="true"
       lpeversion="1"
       weight="33.333333"
       steps="2"
       helper_size="0"
       apply_no_weight="true"
       apply_with_weight="true"
       only_selected="false" />
  </defs>
  <sodipodi:namedview
     pagecolor="#ffffff"
     bordercolor="#666666"
     borderopacity="1"
     objecttolerance="10"
     gridtolerance="10"
     guidetolerance="10"
     inkscape:pageopacity="0"
     inkscape:pageshadow="2"
     inkscape:window-width="1920"
     inkscape:window-height="1017"
     id="namedview2058"
     showgrid="false"
     inkscape:zoom="8.0000004"
     inkscape:cx="65.90576"
     inkscape:cy="48.772874"
     inkscape:window-x="-8"
     inkscape:window-y="-8"
     inkscape:window-maximized="1"
     inkscape:current-layer="g2064"
     inkscape:document-rotation="0" />
  <g
     inkscape:groupmode="layer"
     inkscape:label="Image"
     id="g2064"
     style="opacity:1">
    <rect
       style="fill:none;stroke:#000000;stroke-width:3.00000637;stroke-miterlimit:4;stroke-dasharray:none;paint-order:markers fill stroke"
       id="rect2072"
       width="65.875053"
       height="65.283279"
       x="35.031918"
       y="-32.688919"
       transform="matrix(0.70607583,0.70813623,-0.70607583,0.70813623,0,0)"
       ry="0" />
    <path
       style="fill:none;stroke:#000000;stroke-width:3;stroke-linecap:butt;stroke-linejoin:miter;stroke-opacity:1;stroke-miterlimit:4;stroke-dasharray:none"
       d="m 3.5718787,48.116023 c 0,0 -2.3752229,-44.7729485 43.9416203,-44.5354262 46.316844,0.2375222 45.129232,44.0603812 45.129232,44.0603812 0,0 -1.900177,45.485516 -44.654187,45.129232 C 5.2345345,92.413927 3.5718787,53.341514 3.5718787,48.116023 Z"
       id="path2070" />
    <path
       style="fill:#000000;fill-opacity:1;stroke:#000000;stroke-width:1.05153px;stroke-linecap:butt;stroke-linejoin:miter;stroke-opacity:1"
       d="m 28.597327,34.053655 37.123225,0.07804 c 0,0 3.483032,-0.232483 5.050855,3.581698 1.701523,4.139447 -1.859735,7.083356 -1.859735,7.083356 L 49.261099,61.340184 c 0,0 -1.343629,1.511582 -3.611003,-0.25193 -2.267374,-1.763512 -20.196422,-16.847848 -20.196422,-16.847848 0,0 -3.394867,-2.880324 -1.805502,-6.581681 1.53108,-3.565619 4.949155,-3.605069 4.949155,-3.605069 z"
       id="path2646"
       sodipodi:nodetypes="ccsccscscc" />
    <path
       style="fill:#000000;fill-opacity:1;stroke:#000000;stroke-width:1.05153px;stroke-linecap:butt;stroke-linejoin:miter;stroke-opacity:1"
       d="m 47.754352,64.706523 c -3.450844,-0.170321 -6.852829,3.23808 -6.970558,6.750157 -0.11773,3.512077 3.047751,7.12664 6.497705,7.295833 3.449954,0.169192 7.184928,-3.105756 7.303621,-6.616771 0.118693,-3.511014 -3.379924,-7.258898 -6.830768,-7.429219 z"
       id="path856"
       inkscape:path-effect="#path-effect858"
       inkscape:original-d="m 47.705495,61.127799 c -3.400934,3.409454 -6.802919,6.817855 -10.205955,10.225204 3.166598,3.615689 6.332079,7.230253 9.496639,10.843913 3.736252,-3.274095 7.471226,-6.549044 11.205375,-9.825242 C 54.70385,68.624693 51.205233,64.876809 47.705495,61.127799 Z"
       sodipodi:nodetypes="ccccc" />
  </g>
</svg>
